<svg xmlns="http://www.w3.org/2000/svg" width="24" height="24" viewBox="0 0 24 24">
    <g fill="none" fill-rule="evenodd">
        <g fill="#FFF" fill-rule="nonzero">
            <g>
                <g>
                    <g>
                        <path d="M7.181 4c-.137 0-.263.078-.325.201-.061.123-.048.27.035.38L7.909 5.94V18.06l-1.382 1.357c-.083.11-.096.258-.034.381.061.123.187.201.325.201h10.545c.11 0 .215-.05.284-.136l1.818-1.819c.087-.109.104-.258.043-.384-.06-.126-.187-.206-.327-.206h-7.636V4.364c0-.201-.163-.364-.364-.364h-4zm5.091 1.455v.727c3.61 0 6.546 2.936 6.546 6.545 0 1.507-.517 2.893-1.376 4h.898c.787-1.185 1.206-2.577 1.205-4 0-4.01-3.262-7.272-7.273-7.272zm0 1.454v9.818h4.215c.991-1.043 1.604-2.45 1.604-4 0-3.208-2.61-5.818-5.819-5.818zm-5.09.633c-1.257 1.234-2.07 2.918-2.171 4.79-.019.344-.013.689.017 1.032.154 1.775.95 3.368 2.153 4.549v-1.081c-.941-1.16-1.455-2.61-1.454-4.105 0-1.494.513-2.944 1.454-4.104V7.542zm0 2.375c-.478.86-.728 1.827-.728 2.81 0 1.02.265 1.977.727 2.81v-5.62z" transform="translate(-192.000000, -158.000000) translate(180.000000, 88.000000) translate(0.000000, 58.000000) translate(12.000000, 12.000000)"/>
                    </g>
                </g>
            </g>
        </g>
    </g>
</svg>
